<mxfile host="app.diagrams.net" modified="2023-08-23T13:13:22.759Z" agent="Mozilla/5.0 (Windows NT 10.0; Win64; x64) AppleWebKit/537.36 (KHTML, like Gecko) Chrome/116.0.0.0 Safari/537.36" etag="BvG6urKMkV_VhL11X_kL" version="21.6.9" type="device">
  <diagram name="Page-1" id="7Ve8jjH7swceKnp_2TFL">
    <mxGraphModel dx="1434" dy="758" grid="1" gridSize="10" guides="1" tooltips="1" connect="1" arrows="1" fold="1" page="1" pageScale="1" pageWidth="850" pageHeight="1100" math="0" shadow="0">
      <root>
        <mxCell id="0" />
        <mxCell id="1" parent="0" />
        <mxCell id="bqxaGYPi50El4LEkF_6R-5" style="edgeStyle=orthogonalEdgeStyle;rounded=0;orthogonalLoop=1;jettySize=auto;html=1;exitX=0.5;exitY=1;exitDx=0;exitDy=0;entryX=0.46;entryY=0.15;entryDx=0;entryDy=0;entryPerimeter=0;" edge="1" parent="1" source="bqxaGYPi50El4LEkF_6R-1" target="bqxaGYPi50El4LEkF_6R-4">
          <mxGeometry relative="1" as="geometry" />
        </mxCell>
        <mxCell id="bqxaGYPi50El4LEkF_6R-1" value="Mulai" style="ellipse;whiteSpace=wrap;html=1;aspect=fixed;" vertex="1" parent="1">
          <mxGeometry x="376" y="20" width="60" height="60" as="geometry" />
        </mxCell>
        <mxCell id="bqxaGYPi50El4LEkF_6R-7" value="" style="edgeStyle=orthogonalEdgeStyle;rounded=0;orthogonalLoop=1;jettySize=auto;html=1;" edge="1" parent="1" source="bqxaGYPi50El4LEkF_6R-4" target="bqxaGYPi50El4LEkF_6R-6">
          <mxGeometry relative="1" as="geometry" />
        </mxCell>
        <mxCell id="bqxaGYPi50El4LEkF_6R-4" value="Request location access approval" style="html=1;strokeWidth=2;shape=manualInput;whiteSpace=wrap;rounded=1;size=26;arcSize=11;" vertex="1" parent="1">
          <mxGeometry x="352.5" y="120" width="115" height="80" as="geometry" />
        </mxCell>
        <mxCell id="bqxaGYPi50El4LEkF_6R-9" style="edgeStyle=orthogonalEdgeStyle;rounded=0;orthogonalLoop=1;jettySize=auto;html=1;entryX=0.5;entryY=0;entryDx=0;entryDy=0;entryPerimeter=0;" edge="1" parent="1" source="bqxaGYPi50El4LEkF_6R-6" target="bqxaGYPi50El4LEkF_6R-8">
          <mxGeometry relative="1" as="geometry" />
        </mxCell>
        <mxCell id="bqxaGYPi50El4LEkF_6R-10" value="Tidak" style="edgeLabel;html=1;align=center;verticalAlign=middle;resizable=0;points=[];" vertex="1" connectable="0" parent="bqxaGYPi50El4LEkF_6R-9">
          <mxGeometry x="-0.7488" y="1" relative="1" as="geometry">
            <mxPoint x="-16" y="-1" as="offset" />
          </mxGeometry>
        </mxCell>
        <mxCell id="bqxaGYPi50El4LEkF_6R-12" value="" style="edgeStyle=orthogonalEdgeStyle;rounded=0;orthogonalLoop=1;jettySize=auto;html=1;" edge="1" parent="1" source="bqxaGYPi50El4LEkF_6R-6" target="bqxaGYPi50El4LEkF_6R-11">
          <mxGeometry relative="1" as="geometry" />
        </mxCell>
        <mxCell id="bqxaGYPi50El4LEkF_6R-13" value="Iya" style="edgeLabel;html=1;align=center;verticalAlign=middle;resizable=0;points=[];" vertex="1" connectable="0" parent="bqxaGYPi50El4LEkF_6R-12">
          <mxGeometry x="-0.6947" y="-3" relative="1" as="geometry">
            <mxPoint x="36" y="-3" as="offset" />
          </mxGeometry>
        </mxCell>
        <mxCell id="bqxaGYPi50El4LEkF_6R-6" value="Setuju?" style="rhombus;whiteSpace=wrap;html=1;strokeWidth=2;rounded=1;arcSize=11;" vertex="1" parent="1">
          <mxGeometry x="370" y="250" width="80" height="80" as="geometry" />
        </mxCell>
        <mxCell id="bqxaGYPi50El4LEkF_6R-8" value="Selesai" style="strokeWidth=2;html=1;shape=mxgraph.flowchart.terminator;whiteSpace=wrap;" vertex="1" parent="1">
          <mxGeometry x="160" y="480" width="100" height="60" as="geometry" />
        </mxCell>
        <mxCell id="bqxaGYPi50El4LEkF_6R-15" value="" style="edgeStyle=orthogonalEdgeStyle;rounded=0;orthogonalLoop=1;jettySize=auto;html=1;" edge="1" parent="1" source="bqxaGYPi50El4LEkF_6R-11" target="bqxaGYPi50El4LEkF_6R-14">
          <mxGeometry relative="1" as="geometry" />
        </mxCell>
        <mxCell id="bqxaGYPi50El4LEkF_6R-11" value="Mengambil lokasi secara latitude dan longitude" style="whiteSpace=wrap;html=1;strokeWidth=2;rounded=1;arcSize=11;" vertex="1" parent="1">
          <mxGeometry x="550" y="350" width="120" height="60" as="geometry" />
        </mxCell>
        <mxCell id="bqxaGYPi50El4LEkF_6R-17" style="edgeStyle=orthogonalEdgeStyle;rounded=0;orthogonalLoop=1;jettySize=auto;html=1;exitX=0;exitY=0.5;exitDx=0;exitDy=0;entryX=1;entryY=0.5;entryDx=0;entryDy=0;entryPerimeter=0;" edge="1" parent="1" source="bqxaGYPi50El4LEkF_6R-14" target="bqxaGYPi50El4LEkF_6R-16">
          <mxGeometry relative="1" as="geometry" />
        </mxCell>
        <mxCell id="bqxaGYPi50El4LEkF_6R-19" value="False" style="edgeLabel;html=1;align=center;verticalAlign=middle;resizable=0;points=[];" vertex="1" connectable="0" parent="bqxaGYPi50El4LEkF_6R-17">
          <mxGeometry x="-0.2979" y="3" relative="1" as="geometry">
            <mxPoint x="-5" y="-3" as="offset" />
          </mxGeometry>
        </mxCell>
        <mxCell id="bqxaGYPi50El4LEkF_6R-21" value="" style="edgeStyle=orthogonalEdgeStyle;rounded=0;orthogonalLoop=1;jettySize=auto;html=1;" edge="1" parent="1" source="bqxaGYPi50El4LEkF_6R-14" target="bqxaGYPi50El4LEkF_6R-20">
          <mxGeometry relative="1" as="geometry" />
        </mxCell>
        <mxCell id="bqxaGYPi50El4LEkF_6R-22" value="True" style="edgeLabel;html=1;align=center;verticalAlign=middle;resizable=0;points=[];" vertex="1" connectable="0" parent="bqxaGYPi50El4LEkF_6R-21">
          <mxGeometry x="-0.2222" y="-3" relative="1" as="geometry">
            <mxPoint as="offset" />
          </mxGeometry>
        </mxCell>
        <mxCell id="bqxaGYPi50El4LEkF_6R-14" value="Lokasi != Null?" style="rhombus;whiteSpace=wrap;html=1;strokeWidth=2;rounded=1;arcSize=11;" vertex="1" parent="1">
          <mxGeometry x="570" y="470" width="80" height="80" as="geometry" />
        </mxCell>
        <mxCell id="bqxaGYPi50El4LEkF_6R-18" style="edgeStyle=orthogonalEdgeStyle;rounded=0;orthogonalLoop=1;jettySize=auto;html=1;entryX=0;entryY=0.5;entryDx=0;entryDy=0;exitX=0;exitY=0.5;exitDx=0;exitDy=0;exitPerimeter=0;" edge="1" parent="1" source="bqxaGYPi50El4LEkF_6R-16" target="bqxaGYPi50El4LEkF_6R-11">
          <mxGeometry relative="1" as="geometry" />
        </mxCell>
        <mxCell id="bqxaGYPi50El4LEkF_6R-16" value="Menampilkan Loading" style="strokeWidth=2;html=1;shape=mxgraph.flowchart.display;whiteSpace=wrap;" vertex="1" parent="1">
          <mxGeometry x="400" y="480" width="100" height="60" as="geometry" />
        </mxCell>
        <mxCell id="bqxaGYPi50El4LEkF_6R-24" value="" style="edgeStyle=orthogonalEdgeStyle;rounded=0;orthogonalLoop=1;jettySize=auto;html=1;" edge="1" parent="1" source="bqxaGYPi50El4LEkF_6R-20" target="bqxaGYPi50El4LEkF_6R-23">
          <mxGeometry relative="1" as="geometry" />
        </mxCell>
        <mxCell id="bqxaGYPi50El4LEkF_6R-20" value="Menghitung latitude dan longitude dari lokasi untuk mendapat jam sholat" style="whiteSpace=wrap;html=1;strokeWidth=2;rounded=1;arcSize=11;" vertex="1" parent="1">
          <mxGeometry x="545" y="640" width="130" height="80" as="geometry" />
        </mxCell>
        <mxCell id="bqxaGYPi50El4LEkF_6R-27" style="edgeStyle=orthogonalEdgeStyle;rounded=0;orthogonalLoop=1;jettySize=auto;html=1;entryX=1;entryY=0.5;entryDx=0;entryDy=0;entryPerimeter=0;" edge="1" parent="1" source="bqxaGYPi50El4LEkF_6R-23" target="bqxaGYPi50El4LEkF_6R-26">
          <mxGeometry relative="1" as="geometry" />
        </mxCell>
        <mxCell id="bqxaGYPi50El4LEkF_6R-28" value="False" style="edgeLabel;html=1;align=center;verticalAlign=middle;resizable=0;points=[];" vertex="1" connectable="0" parent="bqxaGYPi50El4LEkF_6R-27">
          <mxGeometry x="-0.0857" y="-2" relative="1" as="geometry">
            <mxPoint as="offset" />
          </mxGeometry>
        </mxCell>
        <mxCell id="bqxaGYPi50El4LEkF_6R-31" style="edgeStyle=orthogonalEdgeStyle;rounded=0;orthogonalLoop=1;jettySize=auto;html=1;" edge="1" parent="1" source="bqxaGYPi50El4LEkF_6R-23" target="bqxaGYPi50El4LEkF_6R-30">
          <mxGeometry relative="1" as="geometry" />
        </mxCell>
        <mxCell id="bqxaGYPi50El4LEkF_6R-32" value="True" style="edgeLabel;html=1;align=center;verticalAlign=middle;resizable=0;points=[];" vertex="1" connectable="0" parent="bqxaGYPi50El4LEkF_6R-31">
          <mxGeometry x="-0.2167" y="4" relative="1" as="geometry">
            <mxPoint as="offset" />
          </mxGeometry>
        </mxCell>
        <mxCell id="bqxaGYPi50El4LEkF_6R-23" value="Jam != Null" style="rhombus;whiteSpace=wrap;html=1;strokeWidth=2;rounded=1;arcSize=11;" vertex="1" parent="1">
          <mxGeometry x="570" y="800" width="80" height="80" as="geometry" />
        </mxCell>
        <mxCell id="bqxaGYPi50El4LEkF_6R-29" style="edgeStyle=orthogonalEdgeStyle;rounded=0;orthogonalLoop=1;jettySize=auto;html=1;entryX=0;entryY=0.5;entryDx=0;entryDy=0;exitX=0;exitY=0.5;exitDx=0;exitDy=0;exitPerimeter=0;" edge="1" parent="1" source="bqxaGYPi50El4LEkF_6R-26" target="bqxaGYPi50El4LEkF_6R-20">
          <mxGeometry relative="1" as="geometry" />
        </mxCell>
        <mxCell id="bqxaGYPi50El4LEkF_6R-26" value="Menampilkan Loading" style="strokeWidth=2;html=1;shape=mxgraph.flowchart.display;whiteSpace=wrap;" vertex="1" parent="1">
          <mxGeometry x="400" y="810" width="100" height="60" as="geometry" />
        </mxCell>
        <mxCell id="bqxaGYPi50El4LEkF_6R-33" style="edgeStyle=orthogonalEdgeStyle;rounded=0;orthogonalLoop=1;jettySize=auto;html=1;entryX=0.5;entryY=1;entryDx=0;entryDy=0;entryPerimeter=0;" edge="1" parent="1" source="bqxaGYPi50El4LEkF_6R-30" target="bqxaGYPi50El4LEkF_6R-8">
          <mxGeometry relative="1" as="geometry" />
        </mxCell>
        <mxCell id="bqxaGYPi50El4LEkF_6R-30" value="Menampilkan hasil" style="strokeWidth=2;html=1;shape=mxgraph.flowchart.display;whiteSpace=wrap;" vertex="1" parent="1">
          <mxGeometry x="560" y="1000" width="100" height="60" as="geometry" />
        </mxCell>
      </root>
    </mxGraphModel>
  </diagram>
</mxfile>
